# xmcd CD database file
#
# Track frame offsets:
#	182
#	7805
#	20442
#	30127
#	38842
#	46682
#	54417
#	64010
#	72507
#	87990
#	98420
#	104837
#	114950
#	125985
#
# Disc length: 1865 seconds
#
# Revision: 2
# Processed by: cddbd v1.4b41PL1 Copyright (c) Steve Scherf et al.
# Submitted via: Feurio! 1.52 - http://www.feurio.com
#
DISCID=aa07470e
DTITLE=Anatol Stefanet - Moldavie: L'art Du Bratsch (Alto) Vol. 1
DYEAR=1900
DGENRE=
TTITLE0=Taraneasca
TTITLE1=Doina Ciobanului
TTITLE2=Hora Batrineasca
TTITLE3=Sirba
TTITLE4=Hora Lui Ion Dragoi
TTITLE5=Ca La Caval
TTITLE6=Hora Moldoveneasca
TTITLE7=Batuta
TTITLE8=Cine Nu Stie Ce-I Dorul
TTITLE9=Hora Lautareasca
TTITLE10=Hora Lui Gheorge
TTITLE11=Sirba
TTITLE12=Hora Pe Loc
TTITLE13=Cintec De Dragoste
EXTD=
EXTT0=
EXTT1=
EXTT2=
EXTT3=
EXTT4=
EXTT5=
EXTT6=
EXTT7=
EXTT8=
EXTT9=
EXTT10=
EXTT11=
EXTT12=
EXTT13=
PLAYORDER=
